<svg width="37" height="38" viewBox="0 0 37 38" fill="none" xmlns="http://www.w3.org/2000/svg">
<path d="M18.4998 3.80078C16.5372 3.80078 14.655 4.60149 13.2672 6.02677C11.8794 7.45205 11.0998 9.38514 11.0998 11.4008C11.0998 13.4164 11.8794 15.3495 13.2672 16.7748C14.655 18.2001 16.5372 19.0008 18.4998 19.0008C20.4624 19.0008 22.3446 18.2001 23.7324 16.7748C25.1202 15.3495 25.8998 13.4164 25.8998 11.4008C25.8998 9.38514 25.1202 7.45205 23.7324 6.02677C22.3446 4.60149 20.4624 3.80078 18.4998 3.80078ZM12.9498 11.4008C12.9498 9.88905 13.5345 8.43923 14.5754 7.37027C15.6162 6.30132 17.0279 5.70078 18.4998 5.70078C19.9718 5.70078 21.3834 6.30132 22.4242 7.37027C23.4651 8.43923 24.0498 9.88905 24.0498 11.4008C24.0498 12.9125 23.4651 14.3623 22.4242 15.4313C21.3834 16.5002 19.9718 17.1008 18.4998 17.1008C17.0279 17.1008 15.6162 16.5002 14.5754 15.4313C13.5345 14.3623 12.9498 12.9125 12.9498 11.4008ZM9.26645 20.9008C8.77923 20.8988 8.29642 20.9956 7.8457 21.1856C7.39498 21.3757 6.98523 21.6552 6.63993 22.0083C6.29464 22.3613 6.0206 22.7809 5.83353 23.2429C5.64646 23.705 5.55004 24.2004 5.5498 24.7008C5.5498 27.9137 7.09086 30.3362 9.49956 31.9151C11.8713 33.4674 15.0681 34.2008 18.4998 34.2008C19.1603 34.2008 19.8133 34.1742 20.4534 34.1191C20.3124 33.4904 20.3156 32.8367 20.4627 32.2096C19.8281 32.2704 19.1732 32.3008 18.4998 32.3008C15.2901 32.3008 12.4744 31.6092 10.4949 30.3115C8.55235 29.0385 7.3998 27.1898 7.3998 24.7008C7.3998 23.6501 8.2286 22.8008 9.26645 22.8008H26.8674C26.8472 22.3008 26.9259 21.8019 27.0986 21.334L27.2577 20.9008H9.26645ZM28.8302 22.0066L29.3538 20.5816C29.8311 19.2877 31.3185 18.6493 32.5728 19.1984L33.2906 19.5138C34.1656 19.8976 34.889 20.593 35.0425 21.5278C35.888 26.7053 31.5127 34.0697 26.477 35.9488C25.5668 36.287 24.5845 36.0248 23.8038 35.4814L23.1637 35.0349C22.9009 34.8531 22.6796 34.6149 22.5151 34.3368C22.3507 34.0586 22.2469 33.7471 22.211 33.4238C22.1751 33.1005 22.208 32.773 22.3073 32.464C22.4066 32.155 22.57 31.8717 22.7863 31.6339L23.7945 30.4806C24.0309 30.2121 24.333 30.0135 24.6694 29.9056C25.0058 29.7976 25.3643 29.7843 25.7074 29.8669L27.9737 30.4179C29.77 29.2646 30.7339 27.6439 30.8634 25.5539L29.2391 23.9218C28.9958 23.6787 28.8275 23.3676 28.7548 23.0272C28.6821 22.6867 28.7083 22.3319 28.8302 22.0066Z" fill="white"/>
</svg>
