<svg width="16" height="16" viewBox="0 0 16 16" fill="none" xmlns="http://www.w3.org/2000/svg">
<path d="M5.19992 1.33398H10.7999C12.9333 1.33398 14.6666 3.06732 14.6666 5.20065V10.8007C14.6666 11.8262 14.2592 12.8097 13.5341 13.5348C12.8089 14.2599 11.8254 14.6673 10.7999 14.6673H5.19992C3.06659 14.6673 1.33325 12.934 1.33325 10.8007V5.20065C1.33325 4.17515 1.74063 3.19165 2.46577 2.4665C3.19091 1.74136 4.17441 1.33398 5.19992 1.33398ZM5.06659 2.66732C4.43007 2.66732 3.81962 2.92017 3.36953 3.37026C2.91944 3.82035 2.66659 4.4308 2.66659 5.06732V10.934C2.66659 12.2606 3.73992 13.334 5.06659 13.334H10.9333C11.5698 13.334 12.1802 13.0811 12.6303 12.631C13.0804 12.181 13.3333 11.5705 13.3333 10.934V5.06732C13.3333 3.74065 12.2599 2.66732 10.9333 2.66732H5.06659ZM11.4999 3.66732C11.7209 3.66732 11.9329 3.75512 12.0892 3.9114C12.2455 4.06768 12.3333 4.27964 12.3333 4.50065C12.3333 4.72166 12.2455 4.93363 12.0892 5.08991C11.9329 5.24619 11.7209 5.33398 11.4999 5.33398C11.2789 5.33398 11.0669 5.24619 10.9107 5.08991C10.7544 4.93363 10.6666 4.72166 10.6666 4.50065C10.6666 4.27964 10.7544 4.06768 10.9107 3.9114C11.0669 3.75512 11.2789 3.66732 11.4999 3.66732ZM7.99992 4.66732C8.88397 4.66732 9.73182 5.01851 10.3569 5.64363C10.9821 6.26875 11.3333 7.1166 11.3333 8.00065C11.3333 8.88471 10.9821 9.73255 10.3569 10.3577C9.73182 10.9828 8.88397 11.334 7.99992 11.334C7.11586 11.334 6.26802 10.9828 5.6429 10.3577C5.01777 9.73255 4.66658 8.88471 4.66658 8.00065C4.66658 7.1166 5.01777 6.26875 5.6429 5.64363C6.26802 5.01851 7.11586 4.66732 7.99992 4.66732ZM7.99992 6.00065C7.46949 6.00065 6.96078 6.21136 6.5857 6.58644C6.21063 6.96151 5.99992 7.47022 5.99992 8.00065C5.99992 8.53108 6.21063 9.03979 6.5857 9.41486C6.96078 9.78994 7.46949 10.0007 7.99992 10.0007C8.53035 10.0007 9.03906 9.78994 9.41413 9.41486C9.7892 9.03979 9.99992 8.53108 9.99992 8.00065C9.99992 7.47022 9.7892 6.96151 9.41413 6.58644C9.03906 6.21136 8.53035 6.00065 7.99992 6.00065Z" fill="white"/>
</svg>
