<svg width="31" height="32" viewBox="0 0 31 32" fill="none" xmlns="http://www.w3.org/2000/svg">
<path d="M13.328 0.978022C14.721 0.397951 16.2793 0.397951 17.6724 0.978022L29.2318 5.79136C29.7297 5.99849 30.1561 6.35356 30.4563 6.8111C30.7565 7.26864 30.9168 7.8078 30.9168 8.35952V23.6434C30.9165 24.1949 30.756 24.7337 30.4558 25.1909C30.1556 25.6482 29.7295 26.003 29.2318 26.21L17.6724 31.0234C16.2793 31.6034 14.721 31.6034 13.328 31.0234L1.76854 26.21C1.27063 26.0029 0.844267 25.6478 0.544066 25.1903C0.243864 24.7327 0.083493 24.1936 0.0834961 23.6419V8.36111C0.083493 7.80938 0.243864 7.27022 0.544066 6.81268C0.844267 6.35515 1.27063 6.00007 1.76854 5.79294L13.328 0.978022ZM16.8029 3.17886C15.9674 2.83116 15.0329 2.83116 14.1975 3.17886L11.2452 4.40911L22.8493 9.04352L26.964 7.41269L16.8013 3.18044L16.8029 3.17886ZM19.6488 10.3118L8.12329 5.70744L4.07641 7.39211L15.5017 11.9553L19.6488 10.3118ZM2.396 23.6434C2.3962 23.722 2.41918 23.7988 2.46201 23.8639C2.50484 23.9291 2.56558 23.9796 2.6365 24.0092L14.1975 28.8225C14.2452 28.8431 14.2946 28.8621 14.3439 28.8795V14.0421L2.396 9.26994V23.6434ZM16.8029 28.8225L28.3638 24.0092C28.435 23.9795 28.4959 23.9287 28.5387 23.8633C28.5816 23.7978 28.6044 23.7207 28.6043 23.6419V9.30794L16.6564 14.0453V28.8811C16.7057 28.8633 16.7545 28.8427 16.8029 28.8225Z" fill="white"/>
</svg>
