<svg width="45" height="46" viewBox="0 0 45 46" fill="none" xmlns="http://www.w3.org/2000/svg">
<path d="M10.3125 26.834C11.3931 26.8338 12.4406 27.2152 13.2777 27.9137C14.1148 28.6123 14.6901 29.585 14.9062 30.6673H28.125V11.5007H7.5C6.50544 11.5007 5.55161 11.9045 4.84835 12.6234C4.14509 13.3423 3.75 14.3173 3.75 15.334V30.6673H5.71875C5.93487 29.585 6.51017 28.6123 7.34728 27.9137C8.18439 27.2152 9.23189 26.8338 10.3125 26.834ZM10.3125 36.4173C9.23189 36.4175 8.18439 36.0361 7.34728 35.3376C6.51017 34.639 5.93487 33.6663 5.71875 32.584H1.875V15.334C1.875 13.809 2.46763 12.3465 3.52252 11.2681C4.57742 10.1898 6.00816 9.58398 7.5 9.58398H28.125C28.6223 9.58398 29.0992 9.78592 29.4508 10.1454C29.8025 10.5048 30 10.9923 30 11.5007V15.334H35.625L41.25 23.0007V32.584H37.4062C37.1911 33.6672 36.6162 34.641 35.779 35.3405C34.9418 36.04 33.8938 36.4221 32.8125 36.4221C31.7312 36.4221 30.6832 36.04 29.846 35.3405C29.0088 34.641 28.4339 33.6672 28.2188 32.584H14.9062C14.6901 33.6663 14.1148 34.639 13.2777 35.3376C12.4406 36.0361 11.3931 36.4175 10.3125 36.4173ZM10.3125 28.7507C9.56658 28.7507 8.85121 29.0536 8.32376 29.5927C7.79632 30.1319 7.5 30.8632 7.5 31.6257C7.5 32.3881 7.79632 33.1194 8.32376 33.6586C8.85121 34.1977 9.56658 34.5007 10.3125 34.5007C11.0584 34.5007 11.7738 34.1977 12.3012 33.6586C12.8287 33.1194 13.125 32.3881 13.125 31.6257C13.125 30.8632 12.8287 30.1319 12.3012 29.5927C11.7738 29.0536 11.0584 28.7507 10.3125 28.7507ZM32.8125 26.834C33.8931 26.8338 34.9406 27.2152 35.7777 27.9137C36.6148 28.6123 37.1901 29.585 37.4062 30.6673H39.375V23.614L38.925 23.0007H30V27.7923C30.7875 27.1982 31.7625 26.834 32.8125 26.834ZM32.8125 28.7507C32.0666 28.7507 31.3512 29.0536 30.8238 29.5927C30.2963 30.1319 30 30.8632 30 31.6257C30 32.3881 30.2963 33.1194 30.8238 33.6586C31.3512 34.1977 32.0666 34.5007 32.8125 34.5007C33.5584 34.5007 34.2738 34.1977 34.8012 33.6586C35.3287 33.1194 35.625 32.3881 35.625 31.6257C35.625 30.8632 35.3287 30.1319 34.8012 29.5927C34.2738 29.0536 33.5584 28.7507 32.8125 28.7507ZM30 17.2507V21.084H37.5L34.6875 17.2507H30Z" fill="white"/>
</svg>
